<svg xmlns="http://www.w3.org/2000/svg" width="100.029" height="78.702" viewBox="0 0 100.029 78.702"><path d="M374.267,33.384s-16.233-9.292-16.893-9.206-16.795,8.806-16.795,8.806-3.209,22.455,16.7,32.763c0,0,18.948-8.9,16.986-32.363" transform="translate(-307.429 -22.823)" fill="#0f55a8"/><path d="M371.479,32.176s-13.549-8.084-14.1-8-14.256,8-14.256,8S341.188,52.349,357.3,65.748c0,0,15.827-10.11,14.18-33.572" transform="translate(-307.429 -22.823)" fill="#2673e5"/><path d="M357.539,66.278l8.724-7.014,3.9-5.653,1.972-5.7-2.9-2.509-3.481-.267-4.806-.533-4.649.3-2.86,1.016-4.862,1.329-1.8,1.719-1.808,2.372-1.4.179,7.713,11.26Z" transform="translate(-307.429 -22.823)" fill="#ffce00"/><path d="M361.43,57.307a.657.657,0,0,0-.669.64c-.015,1.232-.541,1.959-1.523,2.1a3.022,3.022,0,0,1-3.111-1.75c0-.014-.008-.027-.013-.04a.671.671,0,0,0-.852-.391.642.642,0,0,0-.4.827,4.3,4.3,0,0,0,3.993,2.674,3.691,3.691,0,0,0,.584-.041,3.113,3.113,0,0,0,2.656-3.368v0a.656.656,0,0,0-.663-.65" transform="translate(-307.429 -22.823)" fill="#dbb205"/><path d="M346.755,57.955a4.275,4.275,0,0,0,.567.039,3.927,3.927,0,0,0,1.347-.224,2.84,2.84,0,0,0,1.908-3.055v0a.666.666,0,0,0-1.328.1,1.54,1.54,0,0,1-1.043,1.742,2.869,2.869,0,0,1-2.464-.339c.332.584.666,1.168,1.013,1.737" transform="translate(-307.429 -22.823)" fill="#dbb205"/><path d="M352.628,49.289a3,3,0,0,0-1.451,3.373.664.664,0,0,0,.632.452.673.673,0,0,0,.2-.031.643.643,0,0,0,.433-.812,1.719,1.719,0,0,1,.888-1.886c.984-.6,2.245-.348,3.372.681a.211.211,0,0,0,.022.02.679.679,0,0,0,.94-.048.635.635,0,0,0-.049-.914c-1.877-1.716-3.811-1.556-4.991-.835" transform="translate(-307.429 -22.823)" fill="#dbb205"/><path d="M367.8,52.526a1.731,1.731,0,0,0,.8-1.185v.011a.651.651,0,0,0-.539-.729.666.666,0,0,0-.776.52.452.452,0,0,1-.227.316c-.254.163-1.076.488-3.239-.02-2.145-.505-1.714-3.07-1.7-3.178a.648.648,0,0,0-.539-.75.664.664,0,0,0-.772.524c-.247,1.335,0,4.027,2.693,4.659.154.037.3.065.447.1a1.426,1.426,0,0,1,.593,1.3,1.383,1.383,0,0,1-1.094.965.644.644,0,0,0-.445.807.67.67,0,0,0,.83.431,2.646,2.646,0,0,0,2.02-1.976A2.375,2.375,0,0,0,365.72,53h.088a3.623,3.623,0,0,0,1.995-.47" transform="translate(-307.429 -22.823)" fill="#dbb205"/><path d="M371.238,51.976a8.526,8.526,0,0,0-2.351.539.642.642,0,0,0-.4.828.672.672,0,0,0,.853.389,10.074,10.074,0,0,1,1.325-.36c.167-.472.363-.936.572-1.4" transform="translate(-307.429 -22.823)" fill="#dbb205"/><path d="M359.655,64.471a1.252,1.252,0,0,1-.019-.311,7.107,7.107,0,0,1-3.473-.247,5.356,5.356,0,0,1-3.321-2.58,5.909,5.909,0,0,1-.371-4.594c.633-1.9,3.189-2.166,4.636-2.294,1.053.2,1.33.531,1.4.669a.752.752,0,0,1-.113.669.636.636,0,0,0,.249.882.677.677,0,0,0,.909-.241,1.84,1.84,0,0,0-.435-2.567,2.3,2.3,0,0,0,.531-.535,2.782,2.782,0,0,0,.338-2.263.667.667,0,0,0-.793-.494.648.648,0,0,0-.509.767,1.606,1.606,0,0,1-.144,1.269,1.2,1.2,0,0,1-.8.473c-.155.028-.382.046-.653.07-1.611.142-4.962.436-5.877,3.193a7.193,7.193,0,0,0,.458,5.593c.079.146.168.285.257.423-.107.011-.219.019-.33.028q.742.606,1.463,1.246a1.816,1.816,0,0,1,.185.2,7.068,7.068,0,0,0,2.533,1.325,9.736,9.736,0,0,0,2.687.425c.155,0,.309-.008.463-.019a1.861,1.861,0,0,1,.728-1.087" transform="translate(-307.429 -22.823)" fill="#dbb205"/><path d="M367.243,48.032a3.873,3.873,0,0,0-.46-1.142,6.851,6.851,0,0,1,4.073,1.281,7.663,7.663,0,0,1,1.588,1.519,12.657,12.657,0,0,1,.43-1.494,8.79,8.79,0,0,0-1.24-1.072A8.01,8.01,0,0,0,365.72,45.7a7.118,7.118,0,0,0-3.437-1.32c-2.222-.3-4.974.1-6.123,1.142a7.28,7.28,0,0,0-2.827-.352c-2.569.161-5.175,1.475-6.2,3.124a4.687,4.687,0,0,0-.52,1.166,6.844,6.844,0,0,0-3.495,2.6q.434.549.832,1.153a5.612,5.612,0,0,1,2.495-2.307,5,5,0,0,0,1.194,2.945.682.682,0,0,0,.941.061.634.634,0,0,0,.062-.914,3.446,3.446,0,0,1-.364-4.039c.8-1.29,3.013-2.366,5.141-2.5a4.907,4.907,0,0,1,4.155,1.531.68.68,0,0,0,.934.124.635.635,0,0,0,.128-.906l-.019-.023a5.171,5.171,0,0,0-1.122-1.005,8.861,8.861,0,0,1,4.6-.517c1.255.172,3.424.743,3.843,2.648a.662.662,0,0,0,.647.512.751.751,0,0,0,.142-.014.647.647,0,0,0,.514-.767v0" transform="translate(-307.429 -22.823)" fill="#dbb205"/><path d="M367.908,52.687a1.928,1.928,0,0,0,.892-1.308h0a.837.837,0,0,0-.7-.944.881.881,0,0,0-.646.135.838.838,0,0,0-.358.54.272.272,0,0,1-.143.19c-.181.116-.939.457-3.083-.047-1.965-.463-1.565-2.859-1.548-2.959a.814.814,0,0,0-.142-.626.872.872,0,0,0-1.557.333c-.256,1.4.006,4.213,2.841,4.878.131.031.257.057.384.082l.025.006a1.242,1.242,0,0,1,.489,1.066,1.2,1.2,0,0,1-.963.835.835.835,0,0,0-.575,1.044.862.862,0,0,0,.822.6.818.818,0,0,0,.239-.035,2.855,2.855,0,0,0,2.17-2.129,2.567,2.567,0,0,0-.064-1.153h.014a3.815,3.815,0,0,0,1.9-.505m-2.1.118-.382,0,.11.263a2.165,2.165,0,0,1,.135,1.206,2.468,2.468,0,0,1-1.884,1.834.472.472,0,0,1-.585-.3.453.453,0,0,1,.292-.564,1.57,1.57,0,0,0,1.254-1.134,1.622,1.622,0,0,0-.67-1.468l-.149-.048c-.121-.025-.242-.049-.37-.079-2.55-.6-2.78-3.167-2.546-4.441a.468.468,0,0,1,.463-.377.592.592,0,0,1,.082.007.472.472,0,0,1,.3.189.444.444,0,0,1,.077.341c-.021.117-.475,2.85,1.844,3.4,2.152.506,3.048.214,3.379,0a.636.636,0,0,0,.325-.447.449.449,0,0,1,.2-.293.485.485,0,0,1,.352-.074.457.457,0,0,1,.381.5h0a1.543,1.543,0,0,1-.71,1.051,3.4,3.4,0,0,1-1.894.443" transform="translate(-307.429 -22.823)" fill="#dbb205"/><path d="M359.811,53.422a2.967,2.967,0,0,0,.362-2.4.862.862,0,0,0-1.026-.639.84.84,0,0,0-.655,1.006,1.432,1.432,0,0,1-.116,1.105,1.006,1.006,0,0,1-.671.4c-.133.024-.333.042-.564.062l-.073.006c-1.652.146-5.09.448-6.044,3.325a7.339,7.339,0,0,0,.471,5.74c.031.058.064.115.1.173-.072.006-.145.009-.217.014.145.116.292.229.436.348.044-.005.091-.007.133-.012l.3-.047-.166-.258c-.083-.129-.166-.259-.238-.393A6.962,6.962,0,0,1,351.4,56.4c.874-2.637,4.138-2.924,5.707-3.062l.07-.006c.242-.021.45-.039.6-.066a1.4,1.4,0,0,0,.937-.568,1.8,1.8,0,0,0,.165-1.4.457.457,0,0,1,.359-.541.471.471,0,0,1,.561.358,2.6,2.6,0,0,1-.309,2.1,2.1,2.1,0,0,1-.487.49l-.21.152.209.153a1.654,1.654,0,0,1,.381,2.321.478.478,0,0,1-.64.171.45.45,0,0,1-.187-.607.944.944,0,0,0,.131-.86c-.1-.2-.422-.565-1.535-.776l-.027-.005-.029,0c-1.337.118-4.12.365-4.8,2.425a6.065,6.065,0,0,0,.383,4.743,5.573,5.573,0,0,0,3.438,2.672,7.344,7.344,0,0,0,3.529.26,1.057,1.057,0,0,1,.041-.4,6.861,6.861,0,0,1-3.461-.229,5.181,5.181,0,0,1-3.2-2.482,5.694,5.694,0,0,1-.359-4.45c.6-1.807,3.175-2.048,4.439-2.16,1.029.2,1.21.521,1.218.533a.58.58,0,0,1-.1.518.827.827,0,0,0,.322,1.143.875.875,0,0,0,1.171-.3,2.017,2.017,0,0,0-.293-2.668,2.482,2.482,0,0,0,.392-.437" transform="translate(-307.429 -22.823)" fill="#dbb205"/><path d="M370.747,53.164a10.319,10.319,0,0,0-1.473.389.485.485,0,0,1-.359-.016.452.452,0,0,1,.047-.845,8.288,8.288,0,0,1,2.184-.519c.059-.133.124-.265.186-.4a8.684,8.684,0,0,0-2.511.559.835.835,0,0,0-.518,1.073.845.845,0,0,0,.445.474.88.88,0,0,0,.659.03,9.839,9.839,0,0,1,1.194-.333c.046-.139.1-.277.146-.415" transform="translate(-307.429 -22.823)" fill="#dbb205"/><path d="M367.435,47.99a4.1,4.1,0,0,0-.323-.905,6.683,6.683,0,0,1,3.628,1.24,7.488,7.488,0,0,1,1.642,1.595l.009-.013c.035-.15.073-.3.109-.45a7.877,7.877,0,0,0-1.527-1.44A7.144,7.144,0,0,0,366.78,46.7l-.337,0,.17.284a3.7,3.7,0,0,1,.437,1.083l0,.005a.456.456,0,0,1-.363.541.231.231,0,0,1-.1.011.464.464,0,0,1-.455-.361c-.443-2.018-2.7-2.619-4.005-2.8a9.07,9.07,0,0,0-4.706.529l-.339.134.3.2a4.972,4.972,0,0,1,1.094.986.444.444,0,0,1,.092.338.449.449,0,0,1-.182.3.479.479,0,0,1-.66-.091,5.1,5.1,0,0,0-4.321-1.6c-2.187.136-4.464,1.25-5.3,2.593a3.64,3.64,0,0,0,.387,4.261.45.45,0,0,1-.044.645.489.489,0,0,1-.341.112.468.468,0,0,1-.32-.152,4.761,4.761,0,0,1-1.149-2.834l-.018-.286-.264.125a5.817,5.817,0,0,0-2.53,2.3c.082.12.162.24.241.362a5.4,5.4,0,0,1,2.2-2.192,5.146,5.146,0,0,0,1.218,2.77.881.881,0,0,0,1.217.079.823.823,0,0,0,.083-1.181,3.264,3.264,0,0,1-.345-3.817c.771-1.244,2.915-2.278,4.985-2.407a4.706,4.706,0,0,1,3.985,1.456.881.881,0,0,0,1.209.161.83.83,0,0,0,.143-1.2,5.39,5.39,0,0,0-.868-.833,8.691,8.691,0,0,1,4.168-.381c1.2.165,3.284.709,3.677,2.5a.852.852,0,0,0,.838.663.7.7,0,0,0,.185-.018.843.843,0,0,0,.669-.971Z" transform="translate(-307.429 -22.823)" fill="#dbb205"/><path d="M361.426,57.116a.853.853,0,0,0-.862.829c-.013,1.142-.47,1.787-1.35,1.916a2.838,2.838,0,0,1-2.9-1.613l-.018-.053a.871.871,0,0,0-1.1-.506.834.834,0,0,0-.52,1.076,4.472,4.472,0,0,0,4.175,2.8h.023a4.046,4.046,0,0,0,.592-.043,3.294,3.294,0,0,0,2.823-3.555v-.005a.852.852,0,0,0-.859-.842Zm.47.841v0a2.934,2.934,0,0,1-2.489,3.181,3.347,3.347,0,0,1-.554.039,4.083,4.083,0,0,1-3.809-2.548.454.454,0,0,1,.285-.584.468.468,0,0,1,.158-.027.481.481,0,0,1,.2.044.461.461,0,0,1,.241.259l.018.051a3.246,3.246,0,0,0,3.32,1.864c1.075-.157,1.676-.971,1.691-2.29a.464.464,0,0,1,.469-.451h0a.464.464,0,0,1,.468.459" transform="translate(-307.429 -22.823)" fill="#dbb205"/><path d="M345.931,56.549a3.065,3.065,0,0,0,2.34.188,1.713,1.713,0,0,0,1.173-1.937.448.448,0,0,1,.112-.332.475.475,0,0,1,.322-.157.467.467,0,0,1,.5.42l.091,0-.09.012a2.668,2.668,0,0,1-1.781,2.851,3.766,3.766,0,0,1-1.28.212,4.161,4.161,0,0,1-.7-.066c.086.143.171.285.258.425.134.012.27.022.4.022h.08a4.108,4.108,0,0,0,1.371-.235,3.047,3.047,0,0,0,2.035-3.259.856.856,0,0,0-.923-.76.869.869,0,0,0-.59.29.821.821,0,0,0-.2.63,1.344,1.344,0,0,1-.911,1.526,2.643,2.643,0,0,1-2.666-.621l.452.794" transform="translate(-307.429 -22.823)" fill="#dbb205"/><path d="M353.439,50.546c.9-.553,2.076-.306,3.157.681a.879.879,0,0,0,1.218-.061.822.822,0,0,0-.062-1.182c-1.958-1.791-3.984-1.617-5.222-.86a3.208,3.208,0,0,0-1.541,3.6.858.858,0,0,0,.818.585h.007a.869.869,0,0,0,.259-.039.83.83,0,0,0,.566-1.034,1.542,1.542,0,0,1,.8-1.685m-1.179,1.783a.467.467,0,0,1-.45.594.466.466,0,0,1-.443-.308,2.827,2.827,0,0,1,1.367-3.164,3.363,3.363,0,0,1,1.758-.485,4.433,4.433,0,0,1,2.993,1.3l0,0a.45.45,0,0,1,.035.645.476.476,0,0,1-.326.149.482.482,0,0,1-.356-.132c-1.2-1.093-2.546-1.356-3.6-.711a1.923,1.923,0,0,0-.979,2.112" transform="translate(-307.429 -22.823)" fill="#dbb205"/><path d="M361.43,56.893a.665.665,0,0,0-.669.658c-.015,1.269-.541,2.018-1.523,2.166a3.008,3.008,0,0,1-3.111-1.8c0-.014-.008-.028-.013-.042a.666.666,0,0,0-1.254.45,4.3,4.3,0,0,0,3.993,2.753,3.693,3.693,0,0,0,.584-.042c1.641-.248,2.635-1.545,2.656-3.468v0a.665.665,0,0,0-.663-.669" transform="translate(-307.429 -22.823)"/><path d="M367.8,51.971a1.785,1.785,0,0,0,.8-1.22v.011a.666.666,0,0,0-1.315-.215.462.462,0,0,1-.227.325c-.254.167-1.076.5-3.239-.021-2.145-.52-1.714-3.159-1.7-3.271a.666.666,0,0,0-1.311-.233c-.247,1.374,0,4.146,2.693,4.8.154.037.3.067.447.1a1.483,1.483,0,0,1,.593,1.334,1.4,1.4,0,0,1-1.094.994.666.666,0,1,0,.385,1.275,2.685,2.685,0,0,0,2.02-2.035,2.514,2.514,0,0,0-.146-1.356h.088a3.541,3.541,0,0,0,1.995-.483" transform="translate(-307.429 -22.823)"/><path d="M344.034,52.534a5.671,5.671,0,0,1,2.413-2.238,5.221,5.221,0,0,0,1.194,3.031.666.666,0,1,0,1-.877,3.631,3.631,0,0,1-.364-4.159c.8-1.327,3.013-2.435,5.141-2.571a4.82,4.82,0,0,1,4.155,1.575.666.666,0,0,0,1.062-.8l-.019-.023a5.235,5.235,0,0,0-1.122-1.036,8.645,8.645,0,0,1,4.6-.531c1.255.176,3.424.764,3.843,2.726a.668.668,0,0,0,.647.527.678.678,0,0,0,.142-.015.666.666,0,0,0,.514-.79v0a4.039,4.039,0,0,0-.46-1.176,6.713,6.713,0,0,1,4.073,1.319,7.784,7.784,0,0,1,1.406,1.324q.264-.691.5-1.414a9.118,9.118,0,0,0-1.129-.989,7.841,7.841,0,0,0-5.914-1.469,7,7,0,0,0-3.437-1.359c-2.222-.311-4.974.1-6.123,1.175a7.1,7.1,0,0,0-2.827-.361c-2.569.165-5.175,1.517-6.2,3.215a4.908,4.908,0,0,0-.52,1.2,6.847,6.847,0,0,0-3.241,2.325q.309.7.66,1.4" transform="translate(-307.429 -22.823)"/><path d="M368.888,51.96a.666.666,0,0,0,.453,1.253,9.757,9.757,0,0,1,1.009-.3q.406-.728.786-1.5a8.263,8.263,0,0,0-2.248.55" transform="translate(-307.429 -22.823)"/><path d="M350.577,54.227a.666.666,0,1,0-1.328.1,1.592,1.592,0,0,1-1.043,1.793,2.8,2.8,0,0,1-2.159-.171c.378.554.778,1.1,1.207,1.646.023,0,.046,0,.068,0a3.84,3.84,0,0,0,1.347-.23,2.93,2.93,0,0,0,1.908-3.146Z" transform="translate(-307.429 -22.823)"/><path d="M353.334,49.766c.984-.62,2.245-.358,3.372.7l.022.02a.666.666,0,0,0,.891-.99c-1.877-1.767-3.811-1.6-4.991-.86a3.127,3.127,0,0,0-1.451,3.472.667.667,0,0,0,.632.466.674.674,0,0,0,.2-.032.666.666,0,0,0,.433-.836,1.788,1.788,0,0,1,.888-1.942" transform="translate(-307.429 -22.823)"/><path d="M355.95,65.017a9.474,9.474,0,0,0,2.03.364,32.192,32.192,0,0,0,6.793-5.169c.036-.111.073-.221.107-.336a3.285,3.285,0,0,1,.131-.436l-4.2,4.084a5.961,5.961,0,0,1-4.646.17,5.379,5.379,0,0,1-3.321-2.656,6.252,6.252,0,0,1-.371-4.73c.633-1.958,3.189-2.229,4.636-2.361,1.053.205,1.33.547,1.4.689a.793.793,0,0,1-.113.689.666.666,0,0,0,1.158.659,2.049,2.049,0,0,0,.161-1.914,2,2,0,0,0-.6-.729,2.316,2.316,0,0,0,.531-.551,2.934,2.934,0,0,0,.338-2.329.666.666,0,0,0-1.3.281,1.7,1.7,0,0,1-.144,1.307,1.2,1.2,0,0,1-.8.487c-.155.029-.382.047-.653.072-1.611.146-4.962.449-5.877,3.287a7.6,7.6,0,0,0,.458,5.758c.079.15.168.293.257.435-.071.008-.146.012-.218.019a31.646,31.646,0,0,0,4.242,2.91" transform="translate(-307.429 -22.823)"/><path d="M366.779,40.614h0a.452.452,0,0,0,.564-.3l1.2-3.919a.452.452,0,1,0-.865-.264l-1.2,3.918a.453.453,0,0,0,.3.565" transform="translate(-307.429 -22.823)" fill="#ffce00"/><path d="M366.911,40.83a.626.626,0,0,1-.19-.029.648.648,0,0,1-.43-.809l1.2-3.919a.649.649,0,1,1,1.241.379l-1.2,3.919a.652.652,0,0,1-.621.459m1.2-4.823a.257.257,0,0,0-.245.181l-1.2,3.919a.256.256,0,0,0,.489.15l1.2-3.919a.256.256,0,0,0-.17-.32.237.237,0,0,0-.074-.011" transform="translate(-307.429 -22.823)" fill="#ffce00"/><path d="M366.911,40.993a.831.831,0,0,1-.238-.035.814.814,0,0,1-.538-1.013l1.2-3.919a.811.811,0,1,1,1.551.474l-1.2,3.919a.818.818,0,0,1-.776.574m1.2-5.216a.477.477,0,0,0-.228.058.482.482,0,0,0-.238.286l-1.2,3.919a.488.488,0,0,0,.322.607.5.5,0,0,0,.609-.323l1.2-3.919a.488.488,0,0,0-.322-.607.5.5,0,0,0-.143-.021m-1.2,4.823a.434.434,0,0,1-.122-.018.42.42,0,0,1-.278-.523l1.2-3.918a.418.418,0,0,1,.769-.075.411.411,0,0,1,.03.32l-1.2,3.918a.419.419,0,0,1-.4.3m1.2-4.43a.093.093,0,0,0-.089.064l-1.2,3.92a.1.1,0,0,0,.007.072.088.088,0,0,0,.055.045A.1.1,0,0,0,367,40.21l1.2-3.919a.094.094,0,0,0-.007-.072.09.09,0,0,0-.056-.045Z" transform="translate(-307.429 -22.823)" fill="#ffce00"/><path d="M349.471,40.463h0a.454.454,0,0,1-.584-.26l-1.472-3.824a.453.453,0,1,1,.845-.325l1.471,3.825a.453.453,0,0,1-.26.584" transform="translate(-307.429 -22.823)" fill="#ffce00"/><path d="M349.31,40.689a.664.664,0,0,1-.265-.056.646.646,0,0,1-.342-.36l-1.47-3.824a.648.648,0,0,1,1.21-.466l1.471,3.825a.651.651,0,0,1-.373.839.659.659,0,0,1-.231.042m-1.473-4.729a.258.258,0,0,0-.091.017.252.252,0,0,0-.141.135.247.247,0,0,0-.006.2l1.471,3.824a.255.255,0,1,0,.477-.183l-1.471-3.825a.254.254,0,0,0-.135-.142.27.27,0,0,0-.1-.022" transform="translate(-307.429 -22.823)" fill="#ffce00"/><path d="M349.31,40.852a.8.8,0,0,1-.33-.07.806.806,0,0,1-.429-.45l-1.47-3.824a.811.811,0,0,1,1.514-.584l1.471,3.826A.811.811,0,0,1,349.6,40.8a.8.8,0,0,1-.29.054m-1.473-5.122a.488.488,0,0,0-.442.289.476.476,0,0,0-.01.372l1.47,3.824a.481.481,0,0,0,.256.27.5.5,0,0,0,.372.01.488.488,0,0,0,.28-.628l-1.471-3.825a.491.491,0,0,0-.258-.27.5.5,0,0,0-.2-.042m1.473,4.729a.421.421,0,0,1-.392-.268l-1.471-3.825a.418.418,0,1,1,.781-.3l1.471,3.825a.419.419,0,0,1-.24.541.435.435,0,0,1-.149.027m-1.473-4.337a.088.088,0,0,0-.034.008.086.086,0,0,0-.05.049.088.088,0,0,0,0,.071l1.471,3.825a.087.087,0,0,0,.05.051.1.1,0,0,0,.071,0,.094.094,0,0,0,.053-.12l-1.471-3.825a.09.09,0,0,0-.05-.051Z" transform="translate(-307.429 -22.823)" fill="#ffce00"/><path d="M357.931,39.812h0a.468.468,0,0,1-.44-.494l.375-6.505a.467.467,0,1,1,.932.054l-.375,6.505a.467.467,0,0,1-.492.44" transform="translate(-307.429 -22.823)" fill="#ffce00"/><path d="M357.958,40.009h-.039a.663.663,0,0,1-.624-.7l.374-6.506a.664.664,0,0,1,1.326.077l-.375,6.505a.664.664,0,0,1-.662.626m.374-7.44a.271.271,0,0,0-.271.255l-.375,6.506a.271.271,0,0,0,.542.031l.375-6.505a.273.273,0,0,0-.255-.287Z" transform="translate(-307.429 -22.823)" fill="#ffce00"/><path d="M357.958,40.172l-.05,0a.828.828,0,0,1-.776-.872l.375-6.506a.826.826,0,0,1,.873-.777.826.826,0,0,1,.777.872l-.375,6.5a.827.827,0,0,1-.824.78m.374-7.834a.5.5,0,0,0-.5.473l-.374,6.505a.5.5,0,0,0,.472.53l.029.162v-.162a.5.5,0,0,0,.5-.472l.375-6.506a.5.5,0,0,0-.472-.529h-.029m-.381,7.44h-.015a.435.435,0,0,1-.412-.458l.375-6.506a.435.435,0,0,1,.433-.409h.014a.435.435,0,0,1,.419.458l-.374,6.506a.435.435,0,0,1-.44.408m.381-7.21v.163a.108.108,0,0,0-.108.1l-.375,6.506a.108.108,0,0,0,.1.114h0a.109.109,0,0,0,.112-.1l.374-6.505a.114.114,0,0,0-.027-.079.111.111,0,0,0-.075-.036Z" transform="translate(-307.429 -22.823)" fill="#ffce00"/><path d="M357.384,23.227a.47.47,0,0,0-.122.045l-17.2,9.226a.491.491,0,0,0-.262.443c-.055,11.026,2.193,18.054,5.506,22.984s7.67,7.735,11.711,10.35a.492.492,0,0,0,.521,0c4.066-2.575,8.45-5.336,11.812-10.233s5.68-11.9,5.735-22.929a.491.491,0,0,0-.258-.445l-17.107-9.4a.492.492,0,0,0-.337-.047m.1,1.042,16.6,9.118c-.094,10.715-2.342,17.435-5.546,22.1-3.166,4.611-7.273,7.266-11.26,9.792-3.962-2.565-8.041-5.261-11.161-9.9-3.157-4.7-5.339-11.442-5.327-22.156Z" transform="translate(-307.429 -22.823)"/><path d="M357.279,66.743a.88.88,0,0,1-.472-.136l-.068-.044c-3.946-2.553-8.417-5.448-11.758-10.418-3.8-5.654-5.622-13.244-5.573-23.206a.876.876,0,0,1,.473-.788l17.2-9.225a.9.9,0,0,1,.222-.082h0a.9.9,0,0,1,.607.086l17.108,9.4a.876.876,0,0,1,.462.8c-.049,9.954-1.947,17.525-5.8,23.141-3.39,4.937-7.89,7.787-11.862,10.3l-.063.04a.9.9,0,0,1-.47.133m.189-43.132a.1.1,0,0,0-.022.009l-17.2,9.225a.1.1,0,0,0-.055.09c-.049,9.807,1.73,17.253,5.439,22.772,3.25,4.836,7.461,7.562,11.533,10.2l.065.042a.1.1,0,0,0,.1,0l.06-.038c4.1-2.595,8.335-5.278,11.635-10.083,3.764-5.481,5.617-12.909,5.666-22.708a.1.1,0,0,0-.052-.1l-17.108-9.4a.1.1,0,0,0-.065-.008m-.187,42.137-.211-.137C353.3,63.17,349.025,60.4,345.8,55.6c-3.639-5.417-5.4-12.736-5.393-22.376v-.235l17.087-9.164,16.994,9.333,0,.235c-.084,9.641-1.921,16.942-5.615,22.321-3.279,4.774-7.578,7.5-11.373,9.9ZM341.188,33.457c.018,9.363,1.738,16.463,5.26,21.7,3.08,4.583,7.182,7.288,10.838,9.655,3.677-2.33,7.806-4.994,10.932-9.547,3.573-5.2,5.365-12.286,5.476-21.649l-16.21-8.9Z" transform="translate(-307.429 -22.823)"/><path d="M309.7,74.465a2.272,2.272,0,1,1-2.271,2.3,2.27,2.27,0,0,1,2.271-2.3m-1.829,20.82V81.224h3.686V97.306Z" transform="translate(-307.429 -22.823)" fill="#ffce00"/><path d="M315.489,99.5V81.2h3.574v1.661a4.765,4.765,0,0,1,4.183-1.967c3.989,0,6.289,3.047,6.289,7.092,0,4.128-2.576,7.176-6.427,7.176a4.791,4.791,0,0,1-3.935-1.662v8.024Zm7.037-15.313c-1.884,0-3.407,1.413-3.407,3.824s1.523,3.85,3.407,3.85,3.38-1.413,3.38-3.85c0-2.411-1.5-3.824-3.38-3.824" transform="translate(-307.429 -22.823)" fill="#ffce00"/><path d="M340.754,84.857a5.562,5.562,0,0,0-1.108-.111c-1.884,0-3.519.914-3.519,3.851V94.83h-3.685V81.2h3.575v2.022a4.054,4.054,0,0,1,3.878-2.133c.3,0,.582.028.859.055Z" transform="translate(-307.429 -22.823)" fill="#2673e5"/><path d="M356.489,88.015a7.148,7.148,0,1,1-7.148-7.23,7,7,0,0,1,7.148,7.23m-3.685,0c0-2.576-1.662-3.878-3.463-3.878s-3.463,1.3-3.463,3.878c0,2.549,1.662,3.879,3.463,3.879s3.463-1.3,3.463-3.879" transform="translate(-307.429 -22.823)" fill="#2673e5"/><path d="M363.884,81.2h2.743v3.269h-2.743v5.707c0,1.191.555,1.579,1.607,1.579a5.382,5.382,0,0,0,1.136-.11v3.047a5.474,5.474,0,0,1-2.078.333c-2.659,0-4.321-1.579-4.321-4.212V84.469h-2.466V81.2h.692a1.964,1.964,0,0,0,2.106-2.161V77.128h3.324Z" transform="translate(-307.429 -22.823)" fill="#2673e5"/><path d="M404.715,81.2h2.743v3.269h-2.743v5.707c0,1.191.555,1.579,1.607,1.579a5.374,5.374,0,0,0,1.136-.11v3.047a5.47,5.47,0,0,1-2.078.333c-2.659,0-4.321-1.579-4.321-4.212V84.469h-2.466V81.2h.692a1.964,1.964,0,0,0,2.106-2.161V77.128h3.324Z" transform="translate(-307.429 -22.823)" fill="#2673e5"/><path d="M381.835,90.924a6.14,6.14,0,0,1-6.206,4.322,7.242,7.242,0,0,1-.333-14.461c4.212,0,6.733,2.687,6.733,7.064,0,.527-.056,1.081-.056,1.136h-9.751a3.32,3.32,0,0,0,3.435,3.1,3.008,3.008,0,0,0,3.1-2.079Zm-3.436-4.46a2.74,2.74,0,0,0-3.047-2.687,2.95,2.95,0,0,0-3.048,2.687Z" transform="translate(-307.429 -22.823)" fill="#2673e5"/><path d="M387.6,88.015a3.511,3.511,0,0,0,3.491,3.852,3.122,3.122,0,0,0,3.131-2.3l3.24,1.08a6.326,6.326,0,0,1-6.371,4.6,7.053,7.053,0,0,1-7.176-7.231,6.978,6.978,0,0,1,7.065-7.23,6.24,6.24,0,0,1,6.4,4.6l-3.3,1.109a2.973,2.973,0,0,0-3.02-2.3c-1.884,0-3.463,1.358-3.463,3.823" transform="translate(-307.429 -22.823)" fill="#2673e5"/></svg>